<svg width="319" height="169" viewBox="0 0 319 169" fill="none" xmlns="http://www.w3.org/2000/svg">
<path fill-rule="evenodd" clip-rule="evenodd" d="M319 0H0V169H8.01077C8.12294 166.397 9.10781 163.926 10.7825 162.075C12.5641 160.106 14.9804 159 17.5 159C20.0196 159 22.4359 160.106 24.2175 162.075C25.8922 163.926 26.8771 166.397 26.9892 169H32.0102C32.1165 166.397 33.0495 163.926 34.636 162.075C36.3239 160.106 38.6131 159 41 159C43.3869 159 45.6761 160.106 47.364 162.075C48.9505 163.926 49.8835 166.397 49.9898 169H56.0102C56.1165 166.397 57.0495 163.926 58.636 162.075C60.3239 160.106 62.6131 159 65 159C67.3869 159 69.6761 160.106 71.364 162.075C72.9505 163.926 73.8835 166.397 73.9898 169H80.0102C80.1165 166.397 81.0495 163.926 82.636 162.075C84.3239 160.106 86.6131 159 89 159C91.3869 159 93.6761 160.106 95.364 162.075C96.9505 163.926 97.8835 166.397 97.9898 169H103.011C103.123 166.397 104.108 163.926 105.782 162.075C107.564 160.106 109.98 159 112.5 159C115.02 159 117.436 160.106 119.218 162.075C120.892 163.926 121.877 166.397 121.989 169H127.01C127.116 166.397 128.049 163.926 129.636 162.075C131.324 160.106 133.613 159 136 159C138.387 159 140.676 160.106 142.364 162.075C143.951 163.926 144.884 166.397 144.99 169H151.01C151.116 166.397 152.049 163.926 153.636 162.075C155.324 160.106 157.613 159 160 159C162.387 159 164.676 160.106 166.364 162.075C167.951 163.926 168.884 166.397 168.99 169H175.01C175.116 166.397 176.049 163.926 177.636 162.075C179.324 160.106 181.613 159 184 159C186.387 159 188.676 160.106 190.364 162.075C191.951 163.926 192.884 166.397 192.99 169H198.011C198.123 166.397 199.108 163.926 200.782 162.075C202.564 160.106 204.98 159 207.5 159C210.02 159 212.436 160.106 214.218 162.075C215.892 163.926 216.877 166.397 216.989 169H222.01C222.116 166.397 223.049 163.926 224.636 162.075C226.324 160.106 228.613 159 231 159C233.387 159 235.676 160.106 237.364 162.075C238.951 163.926 239.884 166.397 239.99 169H246.01C246.116 166.397 247.049 163.926 248.636 162.075C250.324 160.106 252.613 159 255 159C257.387 159 259.676 160.106 261.364 162.075C262.951 163.926 263.884 166.397 263.99 169H270.01C270.116 166.397 271.049 163.926 272.636 162.075C274.324 160.106 276.613 159 279 159C281.387 159 283.676 160.106 285.364 162.075C286.951 163.926 287.884 166.397 287.99 169H293.01C293.116 166.397 294.049 163.926 295.636 162.075C297.324 160.106 299.613 159 302 159C304.387 159 306.676 160.106 308.364 162.075C309.951 163.926 310.884 166.397 310.99 169H319V0Z" fill="url(#paint0_linear_19_808)"/>
<path fill-rule="evenodd" clip-rule="evenodd" d="M319 0H0V169H8.01077C8.12294 166.397 9.10781 163.926 10.7825 162.075C12.5641 160.106 14.9804 159 17.5 159C20.0196 159 22.4359 160.106 24.2175 162.075C25.8922 163.926 26.8771 166.397 26.9892 169H32.0102C32.1165 166.397 33.0495 163.926 34.636 162.075C36.3239 160.106 38.6131 159 41 159C43.3869 159 45.6761 160.106 47.364 162.075C48.9505 163.926 49.8835 166.397 49.9898 169H56.0102C56.1165 166.397 57.0495 163.926 58.636 162.075C60.3239 160.106 62.6131 159 65 159C67.3869 159 69.6761 160.106 71.364 162.075C72.9505 163.926 73.8835 166.397 73.9898 169H80.0102C80.1165 166.397 81.0495 163.926 82.636 162.075C84.3239 160.106 86.6131 159 89 159C91.3869 159 93.6761 160.106 95.364 162.075C96.9505 163.926 97.8835 166.397 97.9898 169H103.011C103.123 166.397 104.108 163.926 105.782 162.075C107.564 160.106 109.98 159 112.5 159C115.02 159 117.436 160.106 119.218 162.075C120.892 163.926 121.877 166.397 121.989 169H127.01C127.116 166.397 128.049 163.926 129.636 162.075C131.324 160.106 133.613 159 136 159C138.387 159 140.676 160.106 142.364 162.075C143.951 163.926 144.884 166.397 144.99 169H151.01C151.116 166.397 152.049 163.926 153.636 162.075C155.324 160.106 157.613 159 160 159C162.387 159 164.676 160.106 166.364 162.075C167.951 163.926 168.884 166.397 168.99 169H175.01C175.116 166.397 176.049 163.926 177.636 162.075C179.324 160.106 181.613 159 184 159C186.387 159 188.676 160.106 190.364 162.075C191.951 163.926 192.884 166.397 192.99 169H198.011C198.123 166.397 199.108 163.926 200.782 162.075C202.564 160.106 204.98 159 207.5 159C210.02 159 212.436 160.106 214.218 162.075C215.892 163.926 216.877 166.397 216.989 169H222.01C222.116 166.397 223.049 163.926 224.636 162.075C226.324 160.106 228.613 159 231 159C233.387 159 235.676 160.106 237.364 162.075C238.951 163.926 239.884 166.397 239.99 169H246.01C246.116 166.397 247.049 163.926 248.636 162.075C250.324 160.106 252.613 159 255 159C257.387 159 259.676 160.106 261.364 162.075C262.951 163.926 263.884 166.397 263.99 169H270.01C270.116 166.397 271.049 163.926 272.636 162.075C274.324 160.106 276.613 159 279 159C281.387 159 283.676 160.106 285.364 162.075C286.951 163.926 287.884 166.397 287.99 169H293.01C293.116 166.397 294.049 163.926 295.636 162.075C297.324 160.106 299.613 159 302 159C304.387 159 306.676 160.106 308.364 162.075C309.951 163.926 310.884 166.397 310.99 169H319V0Z" fill="#171B4D"/>
<defs>
<linearGradient id="paint0_linear_19_808" x1="159.5" y1="0" x2="159.5" y2="169" gradientUnits="userSpaceOnUse">
<stop stop-color="#ECECF3"/>
<stop offset="0.5" stop-color="#DDDDEB" stop-opacity="0.77875"/>
<stop offset="1" stop-color="#A3A3E1" stop-opacity="0.25"/>
</linearGradient>
</defs>
</svg>
