<svg  viewBox="0 0 21 21" fill="none" xmlns="http://www.w3.org/2000/svg">
<path d="M8.92747 1.703C9.12545 1.48189 9.36783 1.30502 9.63879 1.18392C9.90976 1.06283 10.2032 1.00024 10.5 1.00024C10.7968 1.00024 11.0902 1.06283 11.3612 1.18392C11.6322 1.30502 11.8745 1.48189 12.0725 1.703L12.8113 2.52831C13.0224 2.76418 13.2839 2.94955 13.5764 3.07067C13.8689 3.19179 14.1849 3.24557 14.501 3.22803L15.6091 3.16682C15.9055 3.15048 16.202 3.19684 16.4793 3.30288C16.7566 3.40892 17.0084 3.57225 17.2182 3.78221C17.4281 3.99216 17.5913 4.24402 17.6972 4.52133C17.8031 4.79865 17.8493 5.09518 17.8328 5.39158L17.7716 6.49868C17.7542 6.81459 17.8081 7.13037 17.9292 7.42266C18.0503 7.71495 18.2356 7.97627 18.4713 8.1873L19.2967 8.92607C19.5179 9.12405 19.695 9.3665 19.8162 9.63756C19.9374 9.90862 20 10.2022 20 10.4991C20 10.7961 19.9374 11.0896 19.8162 11.3607C19.695 11.6318 19.5179 11.8742 19.2967 12.0722L18.4713 12.811C18.2355 13.0221 18.0501 13.2836 17.929 13.5761C17.8079 13.8686 17.7541 14.1845 17.7716 14.5006L17.8328 15.6088C17.8492 15.9052 17.8028 16.2017 17.6968 16.479C17.5907 16.7562 17.4274 17.008 17.2174 17.2179C17.0075 17.4277 16.7556 17.5909 16.4783 17.6968C16.201 17.8027 15.9045 17.849 15.6081 17.8325L14.501 17.7713C14.1851 17.7539 13.8693 17.8078 13.577 17.9289C13.2847 18.05 13.0234 18.2353 12.8124 18.471L12.0736 19.2963C11.8756 19.5176 11.6332 19.6946 11.3621 19.8158C11.091 19.937 10.7974 19.9997 10.5005 19.9997C10.2036 19.9997 9.91002 19.937 9.63896 19.8158C9.3679 19.6946 9.12546 19.5176 8.92747 19.2963L8.1887 18.471C7.97756 18.2351 7.71606 18.0498 7.42358 17.9286C7.13109 17.8075 6.81511 17.7537 6.49902 17.7713L5.39087 17.8325C5.09447 17.8488 4.79795 17.8025 4.52069 17.6964C4.24342 17.5904 3.99164 17.4271 3.78179 17.2171C3.57193 17.0071 3.40872 16.7553 3.30281 16.478C3.19691 16.2007 3.15068 15.9041 3.16716 15.6077L3.22838 14.5006C3.24576 14.1847 3.1919 13.8689 3.07078 13.5767C2.94966 13.2844 2.76439 13.023 2.52866 12.812L1.70334 12.0732C1.48206 11.8753 1.30504 11.6328 1.18384 11.3617C1.06264 11.0907 1 10.7971 1 10.5002C1 10.2033 1.06264 9.90968 1.18384 9.63862C1.30504 9.36755 1.48206 9.12511 1.70334 8.92713L2.52866 8.18836C2.76453 7.97721 2.94989 7.71572 3.07101 7.42323C3.19214 7.13075 3.24592 6.81476 3.22838 6.49868L3.16716 5.39052C3.15098 5.09421 3.19746 4.79781 3.30357 4.52067C3.40967 4.24353 3.57303 3.99189 3.78296 3.78215C3.9929 3.57241 4.24471 3.40929 4.52194 3.30345C4.79918 3.1976 5.09562 3.15141 5.39192 3.16787L6.49902 3.22909C6.81494 3.24647 7.13071 3.19261 7.423 3.07149C7.71529 2.95037 7.97662 2.7651 8.18764 2.52937L8.92747 1.703Z" stroke="white" stroke-width="2"/>
<path d="M7.86151 7.86133H7.87207V7.87188H7.86151V7.86133ZM13.1385 13.1383H13.149V13.1488H13.1385V13.1383Z" stroke="white" stroke-width="3" stroke-linejoin="round"/>
<path d="M13.6661 7.33362L7.3338 13.6659" stroke="white" stroke-width="2" stroke-linecap="round" stroke-linejoin="round"/>
</svg>
