<svg  viewBox="0 0 20 21" fill="none" xmlns="http://www.w3.org/2000/svg">
<path fill-rule="evenodd" clip-rule="evenodd" d="M10 2.16666C11.9891 2.16666 13.8968 2.95683 15.3033 4.36336C16.7098 5.76988 17.5 7.67753 17.5 9.66666C17.5 12.2283 16.1033 14.325 14.6317 15.8292C13.8963 16.5724 13.094 17.2464 12.235 17.8425L11.88 18.0842L11.7133 18.195L11.3992 18.395L11.1192 18.5658L10.7725 18.7675C10.5371 18.9015 10.2709 18.9719 10 18.9719C9.72913 18.9719 9.46291 18.9015 9.2275 18.7675L8.88083 18.5658L8.4475 18.2992L8.2875 18.195L7.94583 17.9675C7.01915 17.3403 6.15589 16.6241 5.36833 15.8292C3.89667 14.3242 2.5 12.2283 2.5 9.66666C2.5 7.67753 3.29018 5.76988 4.6967 4.36336C6.10322 2.95683 8.01088 2.16666 10 2.16666ZM10 3.83332C8.4529 3.83332 6.96917 4.4479 5.87521 5.54187C4.78125 6.63583 4.16667 8.11956 4.16667 9.66666C4.16667 11.6017 5.22667 13.3 6.55917 14.6633C7.13218 15.2432 7.75145 15.7755 8.41083 16.255L8.7925 16.5267C8.91583 16.6125 9.03417 16.6925 9.14833 16.7667L9.47333 16.975L9.75917 17.1492L10 17.29L10.3792 17.0658L10.685 16.8742C10.8475 16.7708 11.0225 16.655 11.2075 16.5267L11.5892 16.255C12.2485 15.7755 12.8678 15.2432 13.4408 14.6633C14.7733 13.3008 15.8333 11.6017 15.8333 9.66666C15.8333 8.11956 15.2188 6.63583 14.1248 5.54187C13.0308 4.4479 11.5471 3.83332 10 3.83332ZM10 6.33332C10.8841 6.33332 11.7319 6.68451 12.357 7.30963C12.9821 7.93476 13.3333 8.7826 13.3333 9.66666C13.3333 10.5507 12.9821 11.3986 12.357 12.0237C11.7319 12.6488 10.8841 13 10 13C9.11594 13 8.2681 12.6488 7.64298 12.0237C7.01786 11.3986 6.66667 10.5507 6.66667 9.66666C6.66667 8.7826 7.01786 7.93476 7.64298 7.30963C8.2681 6.68451 9.11594 6.33332 10 6.33332ZM10 7.99999C9.55797 7.99999 9.13405 8.17559 8.82149 8.48815C8.50893 8.80071 8.33333 9.22463 8.33333 9.66666C8.33333 10.1087 8.50893 10.5326 8.82149 10.8452C9.13405 11.1577 9.55797 11.3333 10 11.3333C10.442 11.3333 10.866 11.1577 11.1785 10.8452C11.4911 10.5326 11.6667 10.1087 11.6667 9.66666C11.6667 9.22463 11.4911 8.80071 11.1785 8.48815C10.866 8.17559 10.442 7.99999 10 7.99999Z" />
</svg>
