<svg viewBox="0 0 20 16" fill="none" xmlns="http://www.w3.org/2000/svg">
<path fill-rule="evenodd" clip-rule="evenodd" d="M3 2C2.73478 2 2.48043 2.10536 2.29289 2.29289C2.10536 2.48043 2 2.73478 2 3V13C2 13.2652 2.10536 13.5196 2.29289 13.7071C2.48043 13.8946 2.73478 14 3 14H10.17C10.3766 13.4145 10.7597 12.9074 11.2666 12.5488C11.7735 12.1901 12.3791 11.9975 13 11.9975C13.6209 11.9975 14.2265 12.1901 14.7334 12.5488C15.2403 12.9074 15.6234 13.4145 15.83 14H17C17.2652 14 17.5196 13.8946 17.7071 13.7071C17.8946 13.5196 18 13.2652 18 13V3C18 2.73478 17.8946 2.48043 17.7071 2.29289C17.5196 2.10536 17.2652 2 17 2H15.83C15.6234 2.58553 15.2403 3.09257 14.7334 3.45121C14.2265 3.80985 13.6209 4.00245 13 4.00245C12.3791 4.00245 11.7735 3.80985 11.2666 3.45121C10.7597 3.09257 10.3766 2.58553 10.17 2H3ZM0 3C0 2.20435 0.316071 1.44129 0.87868 0.87868C1.44129 0.316071 2.20435 0 3 0H11C11.2652 0 11.5196 0.105357 11.7071 0.292893C11.8946 0.48043 12 0.734784 12 1C12 1.26522 12.1054 1.51957 12.2929 1.70711C12.4804 1.89464 12.7348 2 13 2C13.2652 2 13.5196 1.89464 13.7071 1.70711C13.8946 1.51957 14 1.26522 14 1C14 0.734784 14.1054 0.48043 14.2929 0.292893C14.4804 0.105357 14.7348 0 15 0H17C17.7956 0 18.5587 0.316071 19.1213 0.87868C19.6839 1.44129 20 2.20435 20 3V13C20 13.7956 19.6839 14.5587 19.1213 15.1213C18.5587 15.6839 17.7956 16 17 16H15C14.7348 16 14.4804 15.8946 14.2929 15.7071C14.1054 15.5196 14 15.2652 14 15C14 14.7348 13.8946 14.4804 13.7071 14.2929C13.5196 14.1054 13.2652 14 13 14C12.7348 14 12.4804 14.1054 12.2929 14.2929C12.1054 14.4804 12 14.7348 12 15C12 15.2652 11.8946 15.5196 11.7071 15.7071C11.5196 15.8946 11.2652 16 11 16H3C2.20435 16 1.44129 15.6839 0.87868 15.1213C0.316071 14.5587 0 13.7956 0 13V3ZM13 5C13.2652 5 13.5196 5.10536 13.7071 5.29289C13.8946 5.48043 14 5.73478 14 6V6.5C14 6.76522 13.8946 7.01957 13.7071 7.20711C13.5196 7.39464 13.2652 7.5 13 7.5C12.7348 7.5 12.4804 7.39464 12.2929 7.20711C12.1054 7.01957 12 6.76522 12 6.5V6C12 5.73478 12.1054 5.48043 12.2929 5.29289C12.4804 5.10536 12.7348 5 13 5ZM14 9.5C14 9.23478 13.8946 8.98043 13.7071 8.79289C13.5196 8.60536 13.2652 8.5 13 8.5C12.7348 8.5 12.4804 8.60536 12.2929 8.79289C12.1054 8.98043 12 9.23478 12 9.5V10C12 10.2652 12.1054 10.5196 12.2929 10.7071C12.4804 10.8946 12.7348 11 13 11C13.2652 11 13.5196 10.8946 13.7071 10.7071C13.8946 10.5196 14 10.2652 14 10V9.5Z" />
</svg>
